<?xml version="1.0" encoding="UTF-8" standalone="no"?>
<svg width="1000" height="500" viewBox="0 0 1000 500" xmlns="http://www.w3.org/2000/svg">
    <style>
        .background { fill: #001f3f; } /* Deep Ocean Blue */
        .track { fill: none; stroke: #FFDC00; stroke-width: 2; stroke-opacity: 0.8; }
        .grid { stroke: #333; stroke-width: 1; stroke-dasharray: 4; }
        .axis-label { fill: #888; font-family: sans-serif; font-size: 12px; }
        .title { fill: #eee; font-family: sans-serif; font-size: 16px; text-anchor: middle; }
    </style>
    
    <!-- Background -->
    <rect width="100%" height="100%" class="background" />
    
    <!-- Grid Lines -->
    <line x1="0" y1="250.0" x2="1000" y2="250.0" class="grid" /> <!-- Equator -->
    <line x1="500.0" y1="0" x2="500.0" y2="500" class="grid" /> <!-- Prime Meridian -->
    
    <!-- Ground Track -->
    <path d="M 500.0 250.0 L 501.0024265629408 248.58887283640507 L 502.00502940875333 247.17781537229504 L 503.00798489644296 245.76689734774416 L 504.0114695372947 244.3561885840404 L 505.01566007104446 242.94575902438058 L 506.02073354208767 241.53567877467114 L 507.026867375736 240.12601814446933 L 508.0342394545332 238.71684768810164 L 509.04302819464067 237.30823824599312 L 510.0534126222994 235.90026098624423 L 511.06557245037743 234.4929874464905 L 512.0796881550057 233.0864895760803 L 513.0959410523087 231.68083977860658 L 514.1145133752291 230.2761109548288 L 515.1355883504463 228.87237654602038 L 516.1593502753849 227.469710577778 L 517.1859845953079 226.0681877043283 L 518.2156779804817 224.6678832533695 L 519.2486184034041 223.26887327148242 L 520.2849952160728 221.8712345701483 L 521.3249992272789 220.47504477240938 L 522.3688227798928 219.0803823602093 L 523.4166598281174 217.6873267224483 L 524.4687060146705 216.29595820379026 L 525.5251587478484 214.90635815425907 L 526.586217278433 213.51860897965753 L 527.6520827763766 212.13279419284737 L 528.722958407207 210.74899846592504 L 529.7990494080808 209.36730768332805 L 530.8805631634054 207.98780899590807 L 531.9677092799413 206.61059087600398 L 533.0606996612844 205.2357431735502 L 534.1597485816236 203.86335717325204 L 535.2650727586481 202.49352565286193 L 536.3768914254745 201.12634294258663 L 537.4954264014493 199.76190498565666 L 538.6209021616626 198.40030940008745 L 539.7535459050035 197.04165554165849 L 540.8935876205642 195.6860445681376 L 542.0412601521841 194.33357950477415 L 543.1967992609126 192.98436531108288 L 544.3604436851415 191.63850894893858 L 545.5324351981444 190.2961194519974 L 546.7130186627345 188.95730799646037 L 547.9024420827328 187.6221879731874 L 549.1009566509106 186.29087506117094 L 550.308816793045 184.9634873023696 L 551.5262802077036 183.64014517790184 L 552.7536079013362 182.32097168559096 L 553.9910642182298 181.0060924188498 L 555.2389168648472 179.69563564688596 L 556.4974369280346 178.38973239620142 L 557.7668988865505 177.08851653335512 L 559.0475806153287 175.79212484894495 L 560.3397633818533 174.50069714276185 L 561.6437318339769 173.2143763100541 L 562.9597739784776 171.93330842883347 L 564.2881811496007 170.65764284814 L 565.6292479667912 169.38753227717334 L 566.9832722807699 168.1231328751821 L 568.3505551070655 166.86460434198935 L 569.7314005460572 165.61211000901866 L 571.1261156885397 164.36581693066415 L 572.535010505764 163.12589597583465 L 573.9583977228643 161.89252191947924 L 575.3965926745176 160.66587353388178 L 576.8499131416427 159.44613367949196 L 578.3186791678871 158.23348939503234 L 579.8032128545996 157.02813198660098 L 581.303838132941 155.8302571154585 L 582.8208805117383 154.6400648841621 L 584.3546667996416 153.4577599206798 L 585.9055248001047 152.28355146008488 L 587.4737829776784 151.11765342340004 L 589.0597700940698 149.96028449312377 L 590.6638148124044 148.8116681849372 L 592.2862452681096 147.67203291505282 L 593.9273886048338 146.54161206262432 L 595.5875704738231 145.4206440266021 L 597.2671144951906 144.30937227637241 L 598.9663416795524 143.20804539548115 L 600.685569808545 142.1169171176976 L 602.4251127728097 141.03624635463086 L 604.1852798661137 139.9662972140716 L 605.9663750343826 138.90733900818475 L 607.7686960785556 137.85964625064122 L 609.5925338103257 136.82349864173378 L 611.4381711600181 135.79918104048372 L 613.305882236076 134.78698342271022 L 615.1959313358701 133.78720082399886 L 617.1085719078337 132.80013326648 L 619.0440454652475 131.8260856682975 L 621.0025804523547 130.86536773463692 L 622.984391063889 129.9182938291627 L 624.9896760195353 128.98518282471406 L 627.0186172953233 128.06635793211018 L 629.071378814483 127.1621465059311 L 631.1481051008417 126.27287982616292 L 633.2489198984587 125.39889285463396 L 635.373924761821 124.54052396521858 L 637.5231976216049 123.6981146468485 L 639.6967913317073 122.8720091784506 L 641.8947322039793 122.06255427502983 L 644.1170185378407 121.27009870422512 L 646.3636191527114 120.49499287280207 L 648.634471931947 119.73758838269482 L 650.9294823877249 118.99823755638201 L 653.248522257041 118.27729293157113 L 655.5914281396809 117.57510672537447 L 657.958000189669 116.89203026839206 L 660.348000872282 116.22841340936051 L 662.7611537992148 115.58460389129411 L 665.1971426548969 114.96094670032497 L 667.6556102272443 114.35778338874137 L 670.136157556301 113.7754513740309 L 672.6383432142401 113.21428321604621 L 675.1616827300501 112.674605874732 L 677.7056481719093 112.15673995116742 L 680.2696678997488 111.66099891499736 L 682.8531264997933 111.18768832162823 L 685.4553649119598 110.73710502286288 L 688.0756807598776 110.30953637492014 L 690.7133288919673 109.90525944803609 L 693.3675221404856 109.52454024206843 L 696.0374323037281 109.16763291270765 L 698.722191354681 108.83477901304722 L 701.4208928773545 108.52620675536667 L 704.132593729847 108.24213029803248 L 706.8563159308848 107.98274906242034 L 709.5910487642191 107.74824708470825 L 712.3357510928589 107.53879240727183 L 715.0893538727139 107.35453651424176 L 717.8507628528725 107.19561381555093 L 720.6188614474728 107.06214118350677 L 723.3925137619922 106.95421754558149 L 726.1705677548147 106.87192353671232 L 728.9518585131964 106.81532121396137 L 731.7352116212385 106.78445383589863 L 734.5194465962593 106.77934570854708 L 737.3033803690478 106.80000209918555 L 740.0858307828742 106.84640921873006 L 742.8656200858965 106.91853427284198 L 745.6415783916788 107.01632558132258 L 748.4125470829736 107.13971276478662 L 751.1773821346821 107.28860699704023 L 753.9349573329847 107.46290132105906 L 756.6841673689996 107.66247102595372 L 759.423930786972 107.88717408184667 L 762.1531927688475 108.13685162916099 L 764.8709277391492 108.41132851845137 L 767.5761417762825 108.71041389658875 L 770.2678748187049 109.03390183484967 L 772.9452026567874 109.38157199425814 L 775.607238703595 109.75319032338393 L 778.2531355402077 110.14850978371726 L 780.8820862335361 110.56727109770937 L 783.4933254268325 111.0092035145977 L 786.08613020522 111.47402558920861 L 788.6598207405435 111.96144596905778 L 791.2137607216454 112.4711641852345 L 793.7473575778004 113.002871442759 L 796.2600625044583 113.5562514063424 L 798.7513703016689 114.13098097773855 L 801.220819036563 114.72673106116483 L 803.6679895420828 115.34316731356708 L 806.0925047647374 115.97995087681873 L 808.4940289745855 116.63673908925793 L 810.8722668508628 117.31318617428838 L 813.2269624567369 118.00894390408295 L 815.5578981165703 118.72366223674146 L 817.864893208847 119.45698992554982 L 820.1478028875565 120.20857509927913 L 822.4065167443733 120.97806581273407 L 824.6409574234278 121.76511056701412 L 826.8510791998381 122.56935879919251 L 829.0368665325161 123.39046134133535 L 831.1983326010297 124.22807084898358 L 833.3355178355811 125.08184219939955 L 835.4484884483927 125.95143286004284 L 837.537334974049 126.83650322787965 L 839.6021708255731 127.73671694025285 L 841.6431308722965 128.65174115814614 L 843.6603700448563 129.58124682276096 L 845.6540619719647 130.52490888639912 L 847.6243976529424 131.48240651869986 L 849.5715841693931 132.4534232893218 L 851.4958434387967 133.43764732819275 L 853.397411012279 134.43477146446799 L 855.276534918298 135.44449334534607 L 857.1334745535337 136.46651553589095 L 858.9684996218557 137.50054560100105 L 860.7818891218488 138.54629617064833 L 862.5739303830588 139.60348498949142 L 864.3449181507985 140.6718349519371 L 866.0951537191044 141.75107412369542 L 867.8249441111928 142.84093575083745 L 869.5346013065658 143.94115825732828 L 871.2244415137502 145.0514852319681 L 872.894784487502 146.17166540563264 L 874.5459528892005 147.30145261966194 L 876.1782716890463 148.44060578620594 L 877.7920676086176 149.58888884128822 L 879.3876686022746 150.74607069131184 L 880.9654033758575 151.91192515368397 L 882.5256009411163 153.08623089219913 L 884.068590204277 154.26877134777754 L 885.5946995871695 155.45933466511596 L 887.1042566793368 156.65771361577242 L 888.597587919574 157.86370551816708 L 890.0750183053686 159.0771121549483 L 891.5368711287439 160.29773968813817 L 892.9834677370502 161.52539857243914 L 894.4151273172821 162.75990346705603 L 895.8321667025564 164.00107314635392 L 897.2349001994221 165.248730409649 L 898.6236394347305 166.50270199040273 L 899.9986932208398 167.7628184650632 L 901.3603674379864 169.02891416177874 L 902.7089649326986 170.30082706918293 L 904.0447854311903 171.57839874543478 L 905.3681254667127 172.86147422767456 L 906.6792783199032 174.14990194204276 L 907.9785339712149 175.4435336143903 L 909.2661790645604 176.74222418179403 L 910.542496881349 178.0458317049793 L 911.8077673241477 179.35421728173523 L 913.0622669092354 180.66724496140046 L 914.3062687673661 181.98478166048181 L 915.5400426520958 183.30669707946268 L 916.7638549550727 184.63286362084534 L 917.9779687277176 185.9631563084644 L 919.1826437087726 187.2974527081004 L 920.3781363572164 188.63563284941702 L 921.5646998900883 189.97757914923514 L 922.7425843247848 191.32317633615602 L 923.9120365254342 192.67231137653678 L 925.0733002529695 194.0248734018175 L 926.2266162185565 195.3807536371967 L 927.372222140055 196.7398453316447 L 928.5103528012152 198.10204368924417 L 929.6412401133334 199.46724580184116 L 930.7651131791133 200.83535058298958 L 931.882198358501 202.2062587031672 L 932.9927193362699 203.57987252624065 L 934.0968971911693 204.95609604715443 L 935.1949504664418 206.3348348308164 L 936.2870952415547 207.71599595215218 L 937.3735452049847 209.09948793729805 L 938.4545117279212 210.4852207059014 L 939.5302039387612 211.8731055144969 L 940.6008287982825 213.26305490092545 L 941.666591175389 214.65498262976217 L 942.7276939233403 216.04880363871902 L 943.7843379563747 217.44443398598762 L 944.8367223266562 218.84179079848622 L 945.8850443014788 220.24079222097637 L 946.9294994406665 221.64135736601204 L 947.9702816741175 223.04340626468587 L 949.007583379452 224.4468598181365 L 950.041595459716 225.85163974977945 L 951.0725074211176 227.25766855822627 L 952.1005074507574 228.66486947085485 L 953.1257824943388 230.07316639799413 L 954.1485183338314 231.4824838876876 L 955.1688996650771 232.89274708099816 L 956.187110175325 234.30388166781825 L 957.2033326206887 235.71581384314965 L 958.2177489035194 237.1284702638151 L 959.2305401496932 238.54177800556752 L 960.2418867858131 239.955664520559 L 961.2519686163273 241.37005759513463 L 962.2609649005688 242.78488530791492 L 963.2690544297216 244.20007598813092 L 964.2764156037218 245.61555817417653 L 965.2832265081018 247.03126057234155 L 966.2896649907892 248.44711201569098 L 967.2959087388664 249.86304142305414 M -31.697864644690632 251.27897775808827 L -30.691477564289706 252.69484998838087 L -29.68475235499955 254.1105870445558 L -28.67751120581627 255.52611777934726 L -27.669576082907493 256.94137092660554 L -26.660768652821943 258.3562750602006 L -25.650910205654913 259.7707585527859 L -24.63982157815805 261.18474953438795 L -23.627323076786254 262.5981758507869 L -22.613234400672 264.0109650216493 L -21.597374564522198 265.4230441983808 L -20.579561821432357 266.8343401216605 L -19.559613585614642 268.24477907862166 L -18.53734635504078 269.65428685964343 L -17.51257563400025 271.06278871471585 L -16.485115855578336 272.47020930934343 L -15.454780304062549 273.8764726799501 L -14.421381037287597 275.2815021887494 L -13.384728808932858 276.6852204780439 L -12.344632990791382 278.0875494239159 L -11.30090149503352 279.488410089275 L -10.253340696491303 280.8877226762243 L -9.201755354996601 282.2854064777094 L -8.145948537812032 283.681379828414 L -7.085721542197376 285.0755600548653 L -6.020873818162108 286.46786342471336 L -4.951202891462635 287.8582050951479 L -3.87650428690765 289.24649906041833 L -2.796571452046158 290.632658098419 L -1.711195681319645 292.01659371630797 L -0.6201660407683107 293.39821609512217 L 0.4767307066047345 294.77743403335677 L 1.5797101747014923 296.1541548894749 L 2.6889904273044998 297.5282845233157 L 3.8047920500229933 298.8997272363698 L 4.92733822106233 300.2683857108922 L 6.056854780650016 301.6341609478223 L 7.19357029894212 302.99695220348707 L 8.337716142213875 304.3566569250581 L 9.489526537122353 305.71317068474224 L 10.64923863280948 307.06638711268255 L 11.817092560597487 308.4161978285514 L 12.993331491002241 309.76249237182003 L 14.17820168777521 311.1051581306913 L 15.371952558652504 312.44408026968586 L 16.574836702474016 313.7791416558776 L 17.787109952301545 315.1102227837752 L 19.009031414141475 316.43720169885495 L 20.240863500845542 317.75995391975255 L 21.48287196073587 319.078352359129 L 22.735325900461984 320.39226724323095 L 23.998497801570235 321.70156603017364 L 25.27266353022352 323.00611332698173 L 26.558102339476697 324.30577080543213 L 27.855096863470486 325.6003971167504 L 29.163933102866697 326.8898478052253 L 30.48490040080567 328.17397522081393 L 31.81829140862102 329.4526284308222 L 33.164402040502 330.7256531307593 L 34.52353141624632 331.99289155447786 L 35.895981791197805 333.25418238372475 L 37.282058472412416 334.50936065724636 L 38.68206972004762 335.7582576796065 L 40.096326632917034 337.00070092989534 L 41.52514301709947 338.2365139705266 L 42.96883523644273 339.46551635634137 L 44.42772204374768 340.6875235442611 L 45.902124391367174 341.90234680375187 L 47.39236521990738 343.10979312839396 L 48.89876922366696 344.30966514887245 L 50.4216625914067 345.5017610477349 L 51.961372720999165 346.6858744762943 L 53.51822790646771 347.8617944740839 L 55.09255699589346 349.0293053913065 L 56.684689018639034 350.1881868147539 L 58.29495278031831 351.33821349771125 L 59.92367642393038 352.47915529439365 L 61.57118695557031 353.6107770995086 L 63.23780973314376 354.73283879357064 L 64.92386791652855 355.8450951946423 L 66.62968187766747 356.94729601721184 L 68.3555685691255 358.03918583896586 L 70.10184084971918 359.1205040762535 L 71.86880676591538 360.19098496908447 L 73.65676878781073 361.25035757654405 L 75.46602299864236 362.29834578355025 L 77.29685823694675 363.33466831991745 L 79.14955519067529 364.35903879272985 L 81.02438544280524 365.37116573306207 L 82.92161046823902 366.37075265811734 L 84.84148058208353 367.3574981498808 L 86.78423383973153 368.3310959514083 L 88.75009488953557 369.291235081889 L 90.73927377927886 370.2375999716282 L 92.75196471809713 371.1698706181025 L 94.78834479599843 372.08772276422724 L 96.84857266366207 372.9908280999672 L 98.93278717577232 373.878854488384 L 101.04110600175602 374.7514662171829 L 103.17362420844181 375.60832427675973 L 105.33041281984204 376.4490866656845 L 107.51151735996842 377.2734087244724 L 109.71695638532708 378.0809434983909 L 111.94672001448751 378.8713421299336 L 114.20076846287776 379.6442542814517 L 116.47903059171196 380.3993285882804 L 118.78140248070505 381.1362131425174 L 121.10774603493999 381.85455600741716 L 123.45788763694117 382.55400576214726 L 125.83161685563307 383.23421207642167 L 128.22868522442224 383.8948263142678 L 130.64880510112036 384.53550216592043 L 133.09164862280159 385.1558963065472 L 135.55684676894182 385.7556690802147 L 138.043988546316 386.3344852071942 L 140.55262030909907 386.89201451239467 L 143.08224522742265 387.4279326723892 L 145.6323229172693 387.9419219781823 L 148.20226924401823 388.4336721105566 L 150.791456311197 388.9028809245298 L 153.39921264501925 389.3492552391673 L 156.02482358411356 389.77251162872426 L 158.6675318824639 390.1723772108547 L 161.32653853199645 390.5485904274067 L 164.0010038094781 390.9009018131537 L 166.69004855044238 391.22907474767555 L 169.39275565076443 391.5328861855175 L 172.10817179428022 391.81212735971917 L 174.83530940252646 392.0666044538217 L 177.57314880029332 392.29613923753675 L 180.32064058827748 392.5005696613918 L 183.07670821173085 392.6797504058598 L 185.8402507116667 392.8335533807287 L 188.61014564295456 392.96186817077574 L 191.38525214154532 393.0646024241709 L 194.1644141211644 393.1416821804491 L 196.94646357812883 393.1930521353439 L 199.73022398152165 393.2186758402795 L 202.5145137248187 393.21853583484045 L 205.29814961424046 393.19263371110225 L 208.07995036860297 393.1409901092713 L 210.85874010528923 393.0636446446687 L 213.63335178714885 392.9606557666707 L 216.40263060565943 392.83210055078877 L 219.1654372765418 392.6780744256286 L 221.92065122518167 392.49869083699184 L 224.66717364066173 392.2940808518783 L 227.40393037891263 392.0643927056023 L 230.1298746974117 391.8097912956391 L 232.84398980596572 391.53045762617813 L 235.5452912203541 391.2265882076579 L 238.2328289079512 390.8983944158017 L 240.9056892168402 390.54610181485884 L 243.56299658233624 390.16994944988215 L 246.20391500721644 389.77018911293914 L 248.82764931426496 389.3470845881672 L 251.43344617195675 388.90091088053947 L 254.02059489618694 388.43195343311777 L 256.5884280328831 387.9405073374286 L 259.1363217280929 387.4268765414215 L 261.6636958937069 386.89137305925266 L 264.17001417833876 386.3343161868903 L 266.6547837540453 385.75603172727074 L 269.1175549305194 385.1568512284388 L 271.55792060913245 384.5371112378065 L 273.975515589749 383.89715257534505 L 276.37001574359334 383.2373196282105 L 278.7411370656225 382.55795966898273 L 281.0886346198757 381.8594221993826 L 283.41230139112827 381.14205832102726 L 285.7119670559172 380.406220134483 L 287.9874966856081 379.65226016759686 L 290.2387893936984 378.8805308338159 L 292.46577693897854 378.09138392095434 L 294.6684222955381 377.285170110635 L 296.8467181999238 376.46223852841973 L 299.00068568502866 375.62293632444613 L 301.1303726095511 374.7676082842165 L 303.23585219110475 373.8965964690291 L 305.31722155030184 373.01023988540453 L 307.3746002723872 372.108874182746 L 309.4081289922654 371.19283137836834 L 311.4179680080563 370.2624396089524 L 313.404295927636 369.31802290741 L 315.3673083519711 368.3599010040961 L 317.30721659844795 367.3883891512621 L 319.2242464668249 366.40379796962077 L 321.11863704990736 365.40643331587535 L 322.9906395905559 364.39659617006157 L 324.8405163861893 363.37458254155223 L 326.6685397415391 362.3406833925879 L 328.47499097004487 361.29518457821274 L 330.2601594439485 360.2383668015192 L 332.0243416928613 359.1705055831335 L 333.76784055031436 358.0918712439047 L 335.4909643475834 357.00272889979937 L 337.1940261538882 355.9033384680388 L 338.8773430619038 354.7939546835565 L 340.54123551737933 353.67482712489715 L 342.186026691558 352.54620024871883 L 343.8120418949927 351.4083134321027 L 345.41960803128865 350.26140102192 L 347.00905308925076 349.10569239054536 L 348.58070567187787 347.9414119972503 L 350.13489456062814 346.7687794546497 L 351.6719483133684 345.5880095996159 L 353.1921948944263 344.39931256811343 L 354.6959613351762 343.2028938734448 L 356.1835734236098 341.99895448743405 L 357.65535542137235 340.78769092411085 L 359.1116298067777 339.5692953254878 L 360.55271704235565 338.3439555490608 L 361.9789353655275 337.11185525668554 L 363.3906006010508 335.8731740045181 L 364.78802599392344 334.62808733373015 L 366.1715220614891 333.37676686173666 L 367.5413964635314 332.11938037369725 L 368.8979538892044 330.85609191407525 L 370.2414959596908 329.5870618780587 L 371.5723211455376 328.3124471026674 L 372.89072469766626 327.0324009573897 L 374.19699859110546 325.74707343420647 L 375.4914314805496 324.4566112368802 L 376.7743086668831 323.16115786939685 L 378.04591207387165 321.8608537234663 L 379.30652023425597 320.55583616499496 L 380.5564082845337 319.2462396194613 L 381.79584796775725 317.9321956561304 L 383.0251076437117 316.61383307105615 L 384.2444523058839 315.29127796883023 L 385.4541436046639 313.96465384303986 L 386.6544398762585 312.63408165541097 L 387.84559617683453 311.29967991361434 L 389.0278643214338 309.96156474772187 L 390.2014929272414 308.61984998530426 L 391.36672746081103 307.2746472251682 L 392.5238102888834 305.92606590973367 L 393.6729807324575 304.5742133960579 L 394.8144751238015 303.2191950255162 L 395.948526866109 301.8611141921521 L 397.0753664955351 300.5000724097135 L 398.1952217453612 299.1361693773941 L 399.30831761205945 297.76950304430164 L 400.4148764230479 296.40016967267627 L 401.51511790594 295.0282638998847 L 402.6092592591141 293.65387879921815 L 403.69751522343734 292.2771059395228 L 404.78009815499814 290.89803544369164 L 405.85721809871063 289.5167560460504 L 406.92908286266885 288.1333551486699 L 407.9958980931396 286.7479188766369 L 409.0578673500935 285.36053213231725 L 410.11519218318284 283.97127864864706 L 411.16807220808687 282.58024104148564 L 412.21670518314994 281.1875008610655 L 413.2612870862507 279.7931386425755 L 414.3020121918418 278.39723395591324 L 415.3390731481151 276.9998654546416 L 416.3726610542435 275.60111092418686 L 417.40296553766666 274.2010473293144 L 418.4301748313844 272.79975086091747 L 419.4544758512348 271.3972969821568 L 420.47605427313124 269.99376047398596 " class="track" />
    
    <!-- Labels & Title -->
    <text x="500.0" y="25" class="title">DeepOrbit Ground Track</text>
    <text x="5" y="245.0" class="axis-label">Equator</text>
    <text x="505.0" y="490" class="axis-label">Prime Meridian</text>
</svg>
